<svg width="47" height="20" viewBox="0 0 47 20" fill="none" xmlns="http://www.w3.org/2000/svg">
<path fill-rule="evenodd" clip-rule="evenodd" d="M10.9419 0.242292C9.79841 1.8253 9.15512 3.43155 8.94155 5.23713C8.85868 5.93741 8.90384 7.4621 9.02593 8.08647C9.30151 9.49548 9.90174 10.9312 10.6932 12.0746C11.1068 12.6719 11.1053 12.6714 11.3719 12.321C12.6717 10.6123 13.4594 8.09465 13.3569 5.97626C13.2562 3.89473 12.5769 2.00876 11.2902 0.238428L11.1169 0L10.9419 0.242292ZM11.7269 2.01009C12.4998 3.49872 12.8518 4.92294 12.8518 6.56102C12.8518 7.15076 12.7177 8.52554 12.6548 8.58046C12.6433 8.59048 12.6158 8.29464 12.5935 7.92304C12.5183 6.66205 12.2928 5.62978 11.8627 4.57625C11.6192 3.9798 11.1675 3.10333 11.1036 3.10333C11.0391 3.10333 10.6115 3.93851 10.3876 4.50166C9.92114 5.67473 9.7184 6.56625 9.67068 7.65426C9.63315 8.50922 9.5895 8.73214 9.52627 8.39156C9.5029 8.26571 9.45174 7.77116 9.41264 7.29252C9.29038 5.79676 9.4955 4.44938 10.0643 3.01272C10.3382 2.32062 10.8204 1.3488 11.0254 1.07554L11.1161 0.954576L11.2895 1.22809C11.3849 1.3785 11.5818 1.73042 11.7269 2.01009ZM15.0663 9.56107V13.0188H15.7947H16.5231V9.99328V6.9678H17.2224H17.9217V6.53559V6.10338H16.494H15.0663V9.56107ZM18.7958 6.17513C18.7958 6.21459 18.6639 7.38725 18.5027 8.78111C18.1292 12.0105 18.0387 12.8194 18.0384 12.9298C18.0382 13.0097 18.1113 13.0188 18.7588 13.0188H19.4792L19.5182 12.4721C19.5396 12.1715 19.573 11.7597 19.5924 11.5569L19.6277 11.1882H19.9918H20.356L20.3897 11.4043C20.4082 11.5232 20.441 11.9351 20.4624 12.3196L20.5015 13.0188H21.2475H21.9936L21.9662 12.8535C21.9511 12.7626 21.7827 11.3153 21.5919 9.63734C21.4011 7.95935 21.229 6.47778 21.2095 6.34491L21.1741 6.10338H19.985C19.0002 6.10338 18.7958 6.11569 18.7958 6.17513ZM23.5162 6.15626C23.2002 6.21392 23.0019 6.33525 22.8459 6.56635C22.7455 6.71509 22.7266 6.84994 22.7096 7.53985L22.69 8.34071H23.4235H24.1571L24.1579 7.79409C24.1588 7.22062 24.2242 7.00782 24.409 6.97675C24.6553 6.93541 24.6815 7.03324 24.6815 7.99097C24.6815 9.12179 24.6935 9.10343 23.9531 9.10343H23.4578V9.4848V9.86616H23.8987C24.3211 9.86616 24.5447 9.91853 24.637 10.039C24.6605 10.0698 24.6801 10.5308 24.6807 11.0636C24.6816 12.09 24.6654 12.1543 24.4062 12.1543C24.2057 12.1543 24.1571 11.9799 24.1571 11.2612V10.6289H23.4239H22.6908L22.7101 11.5314C22.7316 12.5331 22.7691 12.6554 23.1218 12.8749C23.3015 12.9868 23.3707 12.9942 24.3709 13.0091C25.3479 13.0237 25.4481 13.0168 25.6668 12.9195C25.8234 12.8498 25.9485 12.7409 26.0357 12.5986C26.1597 12.3959 26.1685 12.3153 26.1841 11.2391C26.1988 10.2231 26.189 10.0751 26.0967 9.91803C25.9651 9.69404 25.6532 9.51022 25.4048 9.51022C25.1298 9.51022 25.1064 9.42358 25.3709 9.38457C25.708 9.3349 25.9567 9.17844 26.0822 8.93711C26.1784 8.75238 26.1942 8.60029 26.195 7.85765C26.1968 6.30738 26.0481 6.14625 24.5941 6.12204C24.1454 6.11452 23.6603 6.12992 23.5162 6.15626ZM27.2456 9.56107V13.0188H28.0032H28.7607V9.99328V6.9678H29.023H29.2852V9.99328V13.0188H30.0137H30.7421V9.56107V6.10338H28.9938H27.2456V9.56107ZM31.8347 6.13241C31.8107 6.15372 31.791 7.71187 31.791 9.59499V13.0188H32.5486H33.3062V11.8492V10.6797H33.9057C34.683 10.6797 34.9533 10.5765 35.1709 10.1967C35.3163 9.94299 35.3166 9.93903 35.3166 8.46783C35.3166 7.6568 35.2959 6.90811 35.2706 6.80402C35.2163 6.58069 34.9963 6.33693 34.7415 6.21779C34.5899 6.14691 34.3324 6.12916 33.2187 6.11304C32.4816 6.10236 31.8588 6.11111 31.8347 6.13241ZM37.2107 6.15596C36.8665 6.21911 36.6858 6.33972 36.5258 6.61288L36.3947 6.83682V9.58649V12.3362L36.5258 12.5601C36.7653 12.969 36.8392 12.9911 38.0284 13.0092C38.9583 13.0234 39.0988 13.0144 39.3268 12.9264C39.5291 12.8484 39.6117 12.776 39.7223 12.58L39.862 12.3323V9.56107V6.78983L39.7302 6.57439C39.5126 6.21916 39.2658 6.14192 38.2886 6.12336C37.8399 6.11482 37.3548 6.12952 37.2107 6.15596ZM40.9401 9.55985V13.0188H41.6977H42.4552L42.457 10.845C42.4586 8.83826 42.4927 8.40813 42.5968 9.07801C42.6185 9.21784 42.7791 10.1125 42.9537 11.0661C43.1283 12.0197 43.2711 12.8492 43.2711 12.9094C43.2711 13.0144 43.2956 13.0188 43.8819 13.0188C44.4676 13.0188 44.4939 13.0141 44.5222 12.9044C44.5626 12.748 44.7305 11.8362 45.0252 10.1713C45.1613 9.40217 45.2944 8.75116 45.3208 8.72461C45.3473 8.69807 45.369 9.65336 45.369 10.8475V13.0188H46.1265H46.8841V9.56107V6.10338H45.926C45.399 6.10338 44.9559 6.12057 44.9411 6.14152C44.9263 6.16247 44.7922 6.77458 44.643 7.50171C44.4939 8.22884 44.3094 9.12123 44.2331 9.4848C44.1567 9.84836 44.0613 10.3232 44.021 10.5399C43.9806 10.7566 43.9308 10.934 43.9101 10.934C43.8894 10.934 43.8396 10.7681 43.7992 10.5653C43.759 10.3625 43.6648 9.89921 43.59 9.53565C43.5152 9.17208 43.3592 8.40554 43.2433 7.83223C43.1274 7.25891 43.0001 6.6411 42.9603 6.45932L42.888 6.1288L41.9141 6.11487L40.9401 6.10094V9.55985ZM7.46143 6.20777C3.86019 6.5304 1.00264 8.87558 0.407834 11.9967C0.287789 12.6264 0.318674 13.9374 0.467274 14.5188C1.18755 17.3378 3.65768 19.4078 6.90783 19.916C7.63194 20.0292 8.85215 20.0278 9.58845 19.9129C11.0784 19.6803 12.5159 19.0628 13.5735 18.201L14.0173 17.8393V15.4799V13.1205H11.1327H8.24814V14.1689V15.2173L8.45309 15.0809C9.54521 14.354 11.1499 14.6524 11.7907 15.7015C12.3179 16.5645 12.1193 17.4357 11.2302 18.1601C10.4489 18.7968 9.34481 19.1718 8.25338 19.1711C4.74951 19.1688 2.61615 15.8745 4.41047 13.2369C4.69281 12.822 5.28844 12.2882 5.78948 12.0012C6.2784 11.7212 7.01091 11.4713 7.49057 11.421C7.66685 11.4025 7.91009 11.3748 8.03107 11.3594L8.25105 11.3314L8.23503 8.75553L8.219 6.17965L8.07332 6.17284C7.99319 6.16908 7.71784 6.18479 7.46143 6.20777ZM20.1057 7.56527C20.1272 7.8939 20.182 8.60893 20.2275 9.15428C20.273 9.69963 20.3103 10.2202 20.3105 10.3111L20.311 10.4763H19.9858H19.6607L19.6938 10.1585C19.7121 9.98377 19.7679 9.24581 19.8179 8.51868C19.8679 7.79155 19.9211 7.14516 19.9362 7.08221C20.0005 6.81327 20.0691 7.00879 20.1057 7.56527ZM33.7399 7.08084C33.8162 7.17587 33.8306 7.39813 33.8306 8.47917C33.8306 9.70944 33.8255 9.76894 33.7105 9.86926C33.6436 9.92769 33.5339 9.96709 33.4629 9.95825C33.3354 9.94243 33.3353 9.94167 33.3199 8.45512L33.3044 6.9678H33.4768C33.5889 6.9678 33.6809 7.00731 33.7399 7.08084ZM38.3061 7.02882C38.4069 7.11674 38.4069 12.0054 38.3061 12.0933C38.1991 12.1867 37.9793 12.1659 37.9119 12.056C37.8727 11.9921 37.8516 11.1101 37.8516 9.54261C37.8516 7.41496 37.8625 7.11811 37.9431 7.04769C38.0522 6.95255 38.2093 6.94436 38.3061 7.02882ZM11.368 8.06109C11.9292 9.36225 11.8596 10.9893 11.1952 12.0957L11.1179 12.2244L11.0161 12.0525C10.5241 11.2223 10.3386 9.91391 10.5725 8.9248C10.6764 8.48532 10.9372 7.82821 11.0623 7.69026C11.1459 7.59812 11.1927 7.65497 11.368 8.06109ZM15.008 17.6205V19.985H31.0043H47.0007V17.6205V15.2561H31.0043H15.008V17.6205ZM17.0933 16.6926L17.1098 17.2392H17.5158H17.9217V16.6798V16.1205H18.2422H18.5627V17.5951V19.0697H18.2422H17.9217V18.4087V17.7477H17.5138H17.1059V18.4087V19.0697H16.7562H16.4066V17.5926V16.1154L16.7416 16.1307L17.0767 16.1459L17.0933 16.6926ZM24.9146 16.3748V16.629H24.3319H23.7491V16.9341V17.2392H24.2736H24.7981V17.4934V17.7477H24.2736H23.7491V18.1799V18.6121H24.3319H24.9146V18.8409V19.0697H24.0114H23.1081V17.5951V16.1205H24.0114H24.9146V16.3748ZM31.2557 16.3112C31.2727 16.4654 31.2886 16.4764 31.492 16.4764C31.6322 16.4764 31.8046 16.5288 31.9752 16.6232C32.3351 16.8224 32.5008 17.1234 32.5034 17.5831C32.5072 18.2678 32.1006 18.7138 31.4724 18.7138C31.276 18.7138 31.2666 18.722 31.2666 18.8917V19.0697H30.9169H30.5673V18.8917C30.5673 18.7169 30.5631 18.7138 30.3247 18.7138C29.9926 18.7138 29.6405 18.5244 29.4594 18.2484C29.2659 17.9535 29.2514 17.322 29.4309 17.0136C29.605 16.7146 29.9208 16.5177 30.2736 16.4881C30.5636 16.4638 30.5673 16.4613 30.5673 16.2895V16.1154L30.9023 16.1307C31.2336 16.1458 31.2376 16.1478 31.2557 16.3112ZM38.9296 16.3748V16.6036L38.5363 16.6186L38.1429 16.6336V17.8517V19.0697H37.8224H37.5019V17.8494V16.629H37.094H36.6861V16.3736V16.1183L37.8079 16.1321L38.9296 16.1459V16.3748ZM43.9704 16.6729V17.2252L44.3465 17.2516C44.8169 17.2845 45.0592 17.405 45.2335 17.6927C45.4807 18.1005 45.3649 18.7017 44.9897 18.9593C44.8435 19.0596 44.7603 19.0697 44.0791 19.0697H43.3294V17.5951V16.1205H43.6499H43.9704V16.6729ZM30.1611 17.0595C30.0701 17.1441 30.017 17.2675 29.9982 17.438C29.9434 17.9354 30.1094 18.2561 30.4216 18.2561H30.5673V17.5951C30.5673 16.9371 30.5666 16.9341 30.4317 16.9341C30.3572 16.9341 30.2354 16.9905 30.1611 17.0595ZM31.2666 17.5951V18.2561H31.408C31.7224 18.2561 31.9154 17.7931 31.7904 17.3386C31.7196 17.0809 31.567 16.9341 31.3701 16.9341C31.2762 16.9341 31.2666 16.9956 31.2666 17.5951ZM43.9827 18.1926L43.9995 18.6375L44.256 18.6325C44.5731 18.6264 44.6697 18.5271 44.6697 18.2069C44.6697 17.8706 44.5512 17.7477 44.227 17.7477H43.9658L43.9827 18.1926Z" fill="white"/>
</svg>
