<svg width="63" height="20" viewBox="0 0 63 20" fill="none" xmlns="http://www.w3.org/2000/svg">
<g clip-path="url(#clip0_1277_4882)">
<path d="M45.5289 1.61182H44.0781V11.4701H45.5289V1.61182Z" fill="white"/>
<path d="M47.9839 9.68823C47.4411 9.68823 47.0039 10.125 47.0039 10.6673C47.0039 11.2097 47.4411 11.6465 47.9839 11.6465C48.5268 11.6465 48.9639 11.2097 48.9639 10.6673C48.9639 10.125 48.5268 9.68823 47.9839 9.68823Z" fill="white"/>
<path d="M51.7988 8.03719C51.7988 6.86129 52.5049 5.85339 53.8741 5.85339H54.7388V4.48071H53.8741C52.8028 4.48071 52.3128 4.82148 51.8132 5.38783L51.8036 5.40223V4.48071H50.3672V11.4641H51.7988C51.7988 11.4593 51.7988 8.51234 51.7988 8.03719Z" fill="white"/>
<path d="M42.5016 4.48071H41.0508V11.4641H42.5016V4.48071Z" fill="white"/>
<path d="M41.7769 3.32492C42.3198 3.32492 42.7569 2.88816 42.7569 2.34581C42.7569 1.80346 42.315 1.3667 41.7769 1.3667C41.234 1.3667 40.7969 1.80346 40.7969 2.34581C40.7969 2.88816 41.2388 3.32492 41.7769 3.32492Z" fill="white"/>
<path d="M38.0549 5.18854C37.4976 4.62219 36.6425 4.30542 35.7922 4.30542C33.7649 4.30542 32.1172 5.95167 32.1172 7.97708C32.1172 10.0025 33.7649 11.6487 35.7922 11.6487C36.6425 11.6487 37.5409 11.284 38.0549 10.708V11.4712H39.4817V4.483H38.0549V5.18854ZM35.8403 10.1897C34.5912 10.1897 33.64 9.22976 33.64 7.97708C33.64 6.7244 34.5912 5.77408 35.8403 5.77408C37.0893 5.77408 38.0741 6.6668 38.0741 7.97708C38.0741 9.28736 37.0893 10.1897 35.8403 10.1897Z" fill="white"/>
<path d="M58.7538 11.6465C59.4023 11.6465 60.2286 11.2961 60.7474 10.7009C60.7522 10.9649 60.7474 11.2049 60.7474 11.4641H62.1742V8.41635V4.48071H60.7426V8.31556C60.7426 9.30907 59.9836 10.2354 58.8451 10.2354C57.8507 10.2354 57.1445 9.51545 57.1445 8.48354V4.48551H55.7129V8.60353C55.7177 10.4466 56.7121 11.6465 58.7538 11.6465Z" fill="white"/>
<path d="M27.927 4.30542C26.9758 4.30542 26.0439 4.73738 25.477 5.41892C24.9582 4.73258 24.2039 4.30542 23.1903 4.30542C22.364 4.30542 21.7731 4.67499 21.4561 4.97256V4.483H20.0293V11.4663H21.4561V7.38193C21.4561 6.47002 22.2007 5.73089 23.1086 5.73089C24.0166 5.73089 24.7612 6.47482 24.7612 7.38193V11.4663H26.188V7.38193C26.188 6.47002 26.9326 5.73089 27.8405 5.73089C28.7485 5.73089 29.4931 6.47482 29.4931 7.38193V11.4663H30.9199V7.38193C30.9295 5.51011 29.7141 4.30542 27.927 4.30542Z" fill="white"/>
<path d="M46.7681 14.6944L46.7585 14.704V14.1616H46.3405H45.9178H45.8457V18.2605H45.9178H46.7585C46.7585 18.2557 46.7585 16.619 46.7585 16.3406C46.7585 15.6495 47.1716 15.0591 47.9739 15.0591H48.4783V14.1616H47.9739C47.3493 14.1616 47.0611 14.3632 46.7681 14.6944Z" fill="white"/>
<path d="M56.5825 16.4086C56.5825 17.0662 56.054 17.4597 55.54 17.4597C54.9972 17.4597 54.6129 17.0662 54.6129 16.5046V14.1672H53.6953V16.5718C53.6953 17.7093 54.3486 18.3668 55.4824 18.3668C55.8523 18.3668 56.2894 18.1797 56.5777 17.8965C56.5777 17.9685 56.5777 18.0405 56.5777 18.1125V18.2661H57.4904V14.1672H56.5729L56.5825 16.4086Z" fill="white"/>
<path d="M50.8573 14.0615C49.6707 14.0615 48.7051 15.0262 48.7051 16.2117C48.7051 17.3972 49.6707 18.3619 50.8573 18.3619C52.0438 18.3619 53.0094 17.3972 53.0094 16.2117C53.0094 15.0262 52.0486 14.0615 50.8573 14.0615ZM50.8573 17.45C50.1751 17.45 49.6178 16.8933 49.6178 16.2117C49.6178 15.5302 50.1751 14.9734 50.8573 14.9734C51.5394 14.9734 52.0967 15.5302 52.0967 16.2117C52.0967 16.8933 51.5442 17.45 50.8573 17.45Z" fill="white"/>
<path d="M60.57 14.0615C60.0992 14.0615 59.6428 14.2247 59.321 14.5031V14.1623H58.4082V19.6722H59.321V17.8964C59.6284 18.1843 60.104 18.3667 60.57 18.3667C61.7566 18.3667 62.7222 17.402 62.7222 16.2165C62.7222 15.0262 61.7566 14.0615 60.57 14.0615ZM60.5412 17.4308C59.8254 17.4308 59.3065 16.9173 59.3065 16.2117C59.3065 15.5062 59.8254 14.9974 60.5412 14.9974C61.2329 14.9974 61.7566 15.5206 61.7566 16.2117C61.7566 16.9077 61.2329 17.4308 60.5412 17.4308Z" fill="white"/>
<path d="M44.0242 14.5031C43.7024 14.2247 43.246 14.0615 42.7752 14.0615C41.5886 14.0615 40.623 15.0262 40.623 16.2117C40.623 17.3972 41.5886 18.3619 42.7752 18.3619C43.2412 18.3619 43.7168 18.1795 44.0242 17.8916V17.9732C44.0098 18.8131 43.6015 19.2402 42.804 19.2402H42.7944C42.3428 19.2402 41.9441 19.0675 41.5742 18.7075L41.5406 18.6739L40.8777 19.3074L40.9065 19.341C41.2476 19.7394 41.9393 20.1954 42.7704 20.1954C42.7848 20.1954 42.7992 20.1954 42.8136 20.1954C43.5919 20.181 44.8985 19.8786 44.937 18.0068V14.1575H44.0242V14.5031ZM42.804 17.4308C42.1123 17.4308 41.5886 16.9077 41.5886 16.2117C41.5886 15.5206 42.1123 14.9974 42.804 14.9974C43.5198 14.9974 44.0386 15.5062 44.0386 16.2117C44.0338 16.9173 43.5198 17.4308 42.804 17.4308Z" fill="white"/>
<path d="M10.4223 7.85134C10.4223 9.12322 9.3894 10.1551 8.11635 10.1551C6.8433 10.1551 5.81044 9.12322 5.81044 7.85134C5.81044 6.57946 6.8433 5.54755 8.11635 5.54755C9.3894 5.54755 10.4223 6.58425 10.4223 7.85134ZM8.11635 0.196045C3.88886 0.196045 0.449219 3.63253 0.449219 7.85614C0.449219 12.0797 3.88886 15.5114 8.11635 15.5114C9.66322 15.5114 11.1573 15.0507 12.4351 14.1772L12.4591 14.1628L11.4263 12.9629L11.4071 12.9725C10.4223 13.6012 9.28852 13.9372 8.11635 13.9372C4.75838 13.9372 2.02492 11.2062 2.02492 7.85134C2.02492 4.49645 4.75838 1.7655 8.11635 1.7655C11.4743 1.7655 14.2078 4.49645 14.2078 7.85134C14.2078 8.2881 14.1597 8.72486 14.0637 9.16162C13.8715 9.95354 13.319 10.1935 12.9011 10.1599C12.4832 10.1263 11.9931 9.82876 11.9883 9.09922V7.85134C11.9883 5.71553 10.2493 3.9781 8.11154 3.9781C5.97378 3.9781 4.23474 5.71553 4.23474 7.85134C4.23474 9.98714 5.97378 11.7246 8.11154 11.7246C9.1492 11.7246 10.1244 11.3166 10.8594 10.5823C11.287 11.2446 11.9835 11.6622 12.7762 11.7246C12.8434 11.7294 12.9155 11.7342 12.9828 11.7342C13.54 11.7342 14.0925 11.547 14.5392 11.211C15.0004 10.8607 15.3415 10.3567 15.5289 9.75196C15.5577 9.65597 15.6153 9.43039 15.6153 9.43039V9.42079C15.7258 8.93604 15.7787 8.45128 15.7787 7.85134C15.7835 3.63253 12.3438 0.196045 8.11635 0.196045Z" fill="white"/>
</g>
<defs>
<clipPath id="clip0_1277_4882">
<rect width="62.5" height="20" fill="white" transform="translate(0.416016)"/>
</clipPath>
</defs>
</svg>
