<svg width="84" height="20" viewBox="0 0 84 20" fill="none" xmlns="http://www.w3.org/2000/svg">
<path fill-rule="evenodd" clip-rule="evenodd" d="M80.0484 4.1385V6.47006C78.8405 6.01406 77.765 5.7835 76.8238 5.7835C76.2663 5.7835 75.8223 5.88674 75.4885 6.08634C75.1547 6.28766 74.9843 6.53546 74.9843 6.82798C74.9843 7.21686 75.3611 7.5627 76.12 7.87246L78.3122 8.9393C80.0845 9.78418 80.9638 10.9061 80.9638 12.3153C80.9638 13.4871 80.4975 14.4215 79.5563 15.1132C78.6219 15.8119 77.3641 16.1577 75.7982 16.1577C75.0755 16.1577 74.4268 16.1267 73.8504 16.0613C73.274 15.9994 72.6115 15.8721 71.8767 15.6897V13.2497C73.224 13.7057 74.4509 13.9363 75.5556 13.9363C76.8737 13.9363 77.5293 13.5543 77.5293 12.7834C77.5293 12.3997 77.2608 12.0899 76.7154 11.8473L74.2805 10.8097C73.3823 10.4036 72.7147 9.9115 72.2776 9.32818C71.8475 8.7397 71.6289 8.06518 71.6289 7.2943C71.6289 6.21538 72.0832 5.34642 72.9814 4.68566C73.8865 4.03006 75.0876 3.70142 76.5811 3.70142C77.0664 3.70142 77.6256 3.74442 78.2451 3.82358C78.8697 3.9079 79.4702 4.01114 80.0484 4.1385Z" fill="white"/>
<path fill-rule="evenodd" clip-rule="evenodd" d="M11.0881 4.1385V6.47006C9.88019 6.01406 8.80647 5.7835 7.86523 5.7835C7.30599 5.7835 6.86379 5.88674 6.52995 6.08634C6.19615 6.28766 6.02579 6.53546 6.02579 6.82798C6.02579 7.21686 6.40779 7.5627 7.16663 7.87246L9.35883 8.9393C11.1243 9.78418 12.0053 10.9061 12.0053 12.3153C12.0053 13.4871 11.5373 14.4215 10.6029 15.1132C9.66167 15.8119 8.41071 16.1577 6.83971 16.1577C6.11699 16.1577 5.46655 16.1267 4.89011 16.0613C4.31367 15.9994 3.65807 15.8721 2.91819 15.6897V13.2497C4.27067 13.7057 5.49755 13.9363 6.59535 13.9363C7.91343 13.9363 8.56903 13.5543 8.56903 12.7834C8.56903 12.3997 8.30231 12.0899 7.76199 11.8473L5.32719 10.8097C4.42207 10.4036 3.75443 9.9115 3.32427 9.32818C2.88719 8.7397 2.67383 8.06518 2.67383 7.2943C2.67383 6.21538 3.12467 5.34642 4.02803 4.68566C4.92627 4.03006 6.12903 3.70142 7.62263 3.70142C8.11303 3.70142 8.66539 3.74442 9.29171 3.82358C9.91119 3.9079 10.5117 4.01114 11.0881 4.1385Z" fill="white"/>
<path fill-rule="evenodd" clip-rule="evenodd" d="M13.5996 3.91992H17.1701V15.9392H13.5996V3.91992Z" fill="white"/>
<path fill-rule="evenodd" clip-rule="evenodd" d="M28.6748 3.91992V6.1414H23.3698V8.80676H27.9711V10.8097H23.3698V13.6076H28.7832V15.9392H19.9336V3.91992H28.6748Z" fill="white"/>
<path fill-rule="evenodd" clip-rule="evenodd" d="M45.3423 3.91992V15.9392H42.0091V8.0118L38.5507 16.0493H36.4927L33.1666 8.0118V15.9392H30.7559V3.91992H35.1144L38.0895 11.2777L41.2023 3.91992H45.3423Z" fill="white"/>
<path fill-rule="evenodd" clip-rule="evenodd" d="M56.8408 3.91992V6.1414H51.5648V8.80676H56.166V10.8097H51.5648V13.6076H56.9492V15.9392H48.0996V3.91992H56.8408Z" fill="white"/>
<path fill-rule="evenodd" clip-rule="evenodd" d="M69.3683 3.91992V15.9392H65.5811L61.3311 8.23032V15.9392H58.9219V3.91992H62.8195L66.9595 11.4963V3.91992H69.3683Z" fill="white"/>
</svg>
